# Blender v2.74 (sub 0) OBJ File: ''
# www.blender.org
mtllib pirate-ship-giant.mtl
o Mast2
v 0.918646 2.269299 0.000000
v 0.918646 0.464683 0.000000
v 0.820827 2.269299 -0.030701
v 0.820827 2.269299 0.030701
v 0.820827 0.464683 -0.030701
v 0.820827 0.464683 0.030701
vt 0.000000 1.000000
vt 0.000000 0.000000
vt 1.000000 0.000000
vt 1.000000 1.000000
vn -1.000000 0.000000 0.000000
vn 0.000000 1.000000 0.000000
vn 0.000000 -1.000000 0.000000
vn 0.299500 0.000000 0.954100
vn 0.299500 0.000000 -0.954100
usemtl 514630
s 1
f 3/1/1 5/2/1 6/3/1 4/4/1
f 3/1/2 4/2/2 1/3/2
f 6/1/3 5/2/3 2/3/3
f 4/1/4 6/2/4 2/3/4 1/4/4
f 1/1/5 2/2/5 5/3/5 3/4/5
o Sail0
v -1.256721 2.061735 0.000000
v -0.837926 1.140769 0.000000
v -1.256721 0.616048 0.000000
v -0.958460 1.140769 -0.559764
v -0.958460 1.140769 0.559764
v -1.377255 0.616048 -0.500000
v -1.377255 0.616048 0.500000
v -1.377255 2.061735 0.500000
v -1.377255 2.061735 -0.500000
vt 0.000000 1.000000
vt 0.000000 0.000000
vt 1.000000 0.000000
vt 1.000000 1.000000
vn -0.781600 0.623800 0.000000
vn 0.000000 1.000000 0.000000
vn 0.000000 -1.000000 0.000000
vn 0.764800 -0.620300 0.174000
vn 0.764800 -0.620300 -0.174000
vn -0.910300 -0.413900 0.000000
vn 0.889000 0.410800 0.202200
vn 0.889000 0.410800 -0.202200
usemtl b0b0b0
s 1
f 10/5/6 12/6/6 13/7/6 11/8/6
f 15/5/7 14/6/7 7/7/7
f 13/5/8 12/6/8 9/7/8
f 11/5/9 13/6/9 9/7/9 8/8/9
f 8/5/10 9/6/10 12/7/10 10/8/10
f 10/6/11 11/6/11 14/6/11 15/6/11
f 11/6/12 8/6/12 7/6/12 14/6/12
f 8/6/13 10/6/13 15/6/13 7/6/13
o Hull
v 2.518636 0.701210 0.000000
v 2.030310 -0.144100 0.000000
v 1.600688 0.491813 0.588200
v 1.600688 0.491813 -0.588200
v 1.098135 -0.144100 0.437882
v 1.098135 -0.144100 -0.437882
v -1.899827 0.491813 -0.588200
v -1.899827 0.491813 0.588200
v -1.896457 -0.144100 -0.437882
v -1.896457 -0.144100 0.437882
v -2.735658 0.491139 -0.588200
v -2.542330 -0.144774 -0.325489
v -2.542330 -0.144774 0.325489
v -2.735658 0.491139 0.588200
v -2.264078 0.834280 -0.588200
v -2.264078 0.834280 0.588200
v -2.799141 0.833606 -0.588200
v -2.799141 0.833606 0.588200
v -1.821425 -0.344143 -0.340806
v 0.971642 -0.344143 -0.340806
v 0.971642 -0.344143 0.340806
v -1.821425 -0.344143 0.340806
v -2.324111 -0.344667 0.253330
v -2.324111 -0.344667 -0.253330
v 1.697160 -0.344143 0.000000
vt 1.000000 0.635239
vt 0.776682 -0.000674
vt 0.223317 -0.000674
vt 0.000000 0.635239
vt -1.399827 1.000000
vt -1.399827 0.000000
vt 2.100688 0.000000
vt 2.100688 1.000000
vt 2.321425 0.210297
vt 2.321425 0.789703
vt -0.471642 0.789703
vt -0.471642 0.210297
vt 2.399827 0.635913
vt 2.396457 0.000000
vt -0.598135 0.000000
vt -1.100688 0.635913
vt 2.100688 0.635913
vt 1.598135 0.000000
vt -1.396457 0.000000
vt -1.399827 0.635913
vt 3.042330 -0.000674
vt 3.235658 0.635239
vt 2.824111 0.284656
vt 2.824111 0.715344
vt -2.235658 0.635239
vt -2.042330 -0.000674
vt 2.764078 0.000000
vt 2.764078 1.000000
vt 3.299141 1.000000
vt 3.299141 0.000000
vt -1.764078 1.000000
vt -1.764078 0.000000
vt 3.299141 0.977706
vt 2.764078 0.978380
vt 0.000000 0.977706
vt 1.000000 0.977706
vt -1.764078 0.978380
vt -2.299141 0.977706
vt -1.530310 0.000000
vt -2.018636 0.845310
vt -1.197160 0.500000
vt 3.018636 0.845310
vt 2.530310 0.000000
vt -1.100688 1.000000
vt -1.100688 0.000000
vt -2.018636 0.500000
vt 1.471642 -0.200043
vt -1.321425 -0.200043
vt 2.321425 -0.200043
vt -0.471642 -0.200043
vt -1.824112 -0.200567
vt -2.042330 0.223317
vt -2.042330 0.776682
vt -1.824112 0.715344
vt -1.824112 0.284656
vt 2.824111 -0.200567
vt 2.197160 -0.200043
vt -1.197160 -0.200043
vn -0.956800 -0.290900 0.000000
vn 0.000000 1.000000 0.000000
vn 0.000000 -1.000000 -0.000000
vn 0.000500 -1.000000 0.000000
vn 0.000000 -0.230000 0.973200
vn 0.000000 -0.230000 -0.973200
vn -0.071400 -0.318100 -0.945400
vn 0.001000 -1.000000 0.000000
vn -0.071400 -0.318100 0.945400
vn -0.001300 1.000000 0.000000
vn 0.685000 0.728600 0.000000
vn -0.000000 0.000000 -1.000000
vn -0.983200 -0.182300 0.000000
vn -0.000000 0.000000 1.000000
vn 0.478800 -0.399600 0.781700
vn 0.478800 -0.399600 -0.781700
vn -0.222400 0.975000 0.000000
vn 0.000000 -0.436600 -0.899700
vn 0.000000 -0.436600 0.899700
vn -0.150200 -0.476700 0.866200
vn -0.675500 -0.737400 0.000000
vn -0.150200 -0.476700 -0.866200
vn 0.347000 -0.577900 -0.738700
vn 0.347000 -0.577900 0.738700
usemtl 6b551d
s 1
f 26/9/14 27/10/14 28/11/14
f 26/9/14 28/11/14 29/12/14
f 22/13/15 23/14/15 18/15/15
f 22/13/15 18/15/15 19/16/15
f 37/17/16 34/18/17 35/19/16
f 37/17/16 35/19/16 36/20/16
f 23/21/18 25/22/18 20/23/18
f 23/21/18 20/23/18 18/24/18
f 19/25/19 21/26/19 24/27/19
f 19/25/19 24/27/19 22/28/19
f 22/21/20 24/22/20 27/29/20 26/30/20
f 34/18/17 37/17/16 38/31/21 39/32/21
f 25/27/22 23/28/22 29/33/22 28/34/22
f 31/35/23 30/36/23 32/37/23 33/38/23
f 23/14/24 22/13/24 30/39/24 31/40/24
f 22/21/25 26/30/25 32/41/25 30/42/25
f 26/9/26 29/12/26 33/43/26 32/44/26
f 29/33/27 23/28/27 31/45/27 33/46/27
f 18/24/28 20/23/28 17/47/28 16/48/28
f 36/20/16 35/19/16 40/49/16
f 21/26/29 19/25/29 16/50/29 17/51/29
f 19/52/30 18/53/30 16/54/30
f 24/27/31 21/26/31 35/55/31 34/56/31
f 20/23/32 25/22/32 37/57/32 36/58/32
f 25/27/33 28/34/33 38/59/33 37/56/33
f 28/60/34 27/61/34 39/62/34 38/63/34
f 27/29/35 24/22/35 34/57/35 39/64/35
f 21/26/36 17/51/36 40/65/36 35/55/36
f 17/47/37 20/23/37 36/58/37 40/66/37
o Mast0
v -1.400854 2.269299 0.000000
v -1.400854 0.464683 0.000000
v -1.498673 2.269299 -0.030701
v -1.498673 2.269299 0.030701
v -1.498673 0.464683 -0.030701
v -1.498673 0.464683 0.030701
vt 0.000000 1.000000
vt 0.000000 0.000000
vt 1.000000 0.000000
vt 1.000000 1.000000
vn -1.000000 0.000000 0.000000
vn 0.000000 1.000000 0.000000
vn 0.000000 -1.000000 0.000000
vn 0.299500 0.000000 0.954100
vn 0.299500 0.000000 -0.954100
usemtl 514630
s 1
f 43/67/38 45/68/38 46/69/38 44/70/38
f 43/67/39 44/68/39 41/69/39
f 46/67/40 45/68/40 42/69/40
f 44/67/41 46/68/41 42/69/41 41/70/41
f 41/67/42 42/68/42 45/69/42 43/70/42
o Sail2
v 1.062779 2.061735 0.000000
v 1.481574 1.140769 0.000000
v 1.062779 0.616048 0.000000
v 1.361040 1.140769 -0.559764
v 1.361040 1.140769 0.559764
v 0.942245 0.616048 -0.500000
v 0.942245 0.616048 0.500000
v 0.942245 2.061735 0.500000
v 0.942245 2.061735 -0.500000
vt 0.000000 1.000000
vt 0.000000 0.000000
vt 1.000000 0.000000
vt 1.000000 1.000000
vn -0.781600 0.623800 0.000000
vn 0.000000 1.000000 0.000000
vn 0.000000 -1.000000 0.000000
vn 0.764800 -0.620300 0.174000
vn 0.764800 -0.620300 -0.174000
vn -0.910300 -0.413900 0.000000
vn 0.889000 0.410800 0.202200
vn 0.889000 0.410800 -0.202200
usemtl b0b0b0
s 1
f 50/71/43 52/72/43 53/73/43 51/74/43
f 55/71/44 54/72/44 47/73/44
f 53/71/45 52/72/45 49/73/45
f 51/71/46 53/72/46 49/73/46 48/74/46
f 48/71/47 49/72/47 52/73/47 50/74/47
f 50/72/48 51/72/48 54/72/48 55/72/48
f 51/72/49 48/72/49 47/72/49 54/72/49
f 48/72/50 50/72/50 55/72/50 47/72/50
o Sail1
v -0.166921 2.313011 0.000000
v 0.251874 1.238487 0.000000
v -0.166921 0.616048 0.000000
v 0.131340 1.238487 -0.607576
v 0.131340 1.238487 0.607576
v -0.287455 0.616048 -0.500000
v -0.287455 0.616048 0.500000
v -0.287455 2.313011 0.500000
v -0.287455 2.313011 -0.500000
vt 0.000000 1.000000
vt 0.000000 0.000000
vt 1.000000 0.000000
vt 1.000000 1.000000
vn -0.829700 0.558200 0.000000
vn 0.000000 1.000000 0.000000
vn 0.000000 -1.000000 0.000000
vn 0.809600 -0.559900 0.176200
vn 0.809600 -0.559900 -0.176200
vn -0.931700 -0.363100 0.000000
vn 0.909900 0.364500 0.198000
vn 0.909900 0.364500 -0.198000
usemtl b0b0b0
s 1
f 59/75/51 61/76/51 62/77/51 60/78/51
f 64/75/52 63/76/52 56/77/52
f 62/75/53 61/76/53 58/77/53
f 60/75/54 62/76/54 58/77/54 57/78/54
f 57/75/55 58/76/55 61/77/55 59/78/55
f 59/76/56 60/76/56 63/76/56 64/76/56
f 60/76/57 57/76/57 56/76/57 63/76/57
f 57/76/58 59/76/58 64/76/58 56/76/58
o Mast1
v -0.311054 2.562455 0.000000
v -0.311054 0.464683 0.000000
v -0.408873 2.562455 -0.030701
v -0.408873 2.562455 0.030701
v -0.408873 0.464683 -0.030701
v -0.408873 0.464683 0.030701
vt 0.000000 1.000000
vt 0.000000 0.000000
vt 1.000000 0.000000
vt 1.000000 1.000000
vn -1.000000 0.000000 0.000000
vn 0.000000 1.000000 0.000000
vn 0.000000 -1.000000 0.000000
vn 0.299500 0.000000 0.954100
vn 0.299500 0.000000 -0.954100
usemtl 514630
s 1
f 67/79/59 69/80/59 70/81/59 68/82/59
f 67/79/60 68/80/60 65/81/60
f 70/79/61 69/80/61 66/81/61
f 68/79/62 70/80/62 66/81/62 65/82/62
f 65/79/63 66/80/63 69/81/63 67/82/63
